<?xml version="1.0" ?><!DOCTYPE svg  PUBLIC '-//W3C//DTD SVG 1.1//EN'  'http://www.w3.org/Graphics/SVG/1.1/DTD/svg11.dtd'><svg enable-background="new 0 0 512 512" height="512px" id="Layer_1" version="1.1" viewBox="0 0 512 512" width="512px" xml:space="preserve" xmlns="http://www.w3.org/2000/svg" xmlns:xlink="http://www.w3.org/1999/xlink"><g><linearGradient gradientUnits="userSpaceOnUse" id="SVGID_1_" x1="85.2425" x2="311.8794" y1="204.3735" y2="431.0103"><stop offset="0" style="stop-color:#517FA6"/><stop offset="1" style="stop-color:#426699"/></linearGradient><rect fill="url(#SVGID_1_)" height="143.429" width="47.678" x="147.601" y="218.857"/><linearGradient gradientUnits="userSpaceOnUse" id="SVGID_2_" x1="143.3512" x2="369.988" y1="146.2648" y2="372.9017"><stop offset="0" style="stop-color:#517FA6"/><stop offset="1" style="stop-color:#426699"/></linearGradient><path d="M171.757,149.711c-16.312,0-26.987,10.703-26.987,24.776c0,13.772,10.361,24.797,26.358,24.797   h0.321c16.626,0,26.974-11.025,26.974-24.797C198.109,160.414,188.075,149.711,171.757,149.711z" fill="url(#SVGID_2_)"/><linearGradient gradientUnits="userSpaceOnUse" id="SVGID_3_" x1="139.7398" x2="366.3767" y1="149.8762" y2="376.513"><stop offset="0" style="stop-color:#517FA6"/><stop offset="1" style="stop-color:#426699"/></linearGradient><path d="M312.32,215.486c-25.328,0-36.647,13.943-42.98,23.7v0.465h-0.308   c0.089-0.146,0.219-0.315,0.308-0.465v-20.328h-47.683c0.636,13.459,0,143.429,0,143.429h47.685v-80.103   c0-4.295,0.321-8.558,1.58-11.627c3.454-8.574,11.294-17.44,24.471-17.44c17.255,0,24.158,13.159,24.158,32.434v76.738h47.678   v-82.25C367.227,235.983,343.705,215.486,312.32,215.486z" fill="url(#SVGID_3_)"/></g></svg>